<?xml version="1.0" encoding="UTF-8" standalone="no"?>
<!-- Created with Inkscape (http://www.inkscape.org/) -->

<svg
   width="256"
   height="256"
   viewBox="0 0 67.733332 67.733333"
   version="1.1"
   id="svg1"
   xml:space="preserve"
   sodipodi:docname="jino_logo.svg"
   inkscape:version="1.3 (0e150ed6c4, 2023-07-21)"
   xmlns:inkscape="http://www.inkscape.org/namespaces/inkscape"
   xmlns:sodipodi="http://sodipodi.sourceforge.net/DTD/sodipodi-0.dtd"
   xmlns="http://www.w3.org/2000/svg"
   xmlns:svg="http://www.w3.org/2000/svg"><sodipodi:namedview
     id="namedview1"
     pagecolor="#ffffff"
     bordercolor="#666666"
     borderopacity="1.0"
     inkscape:showpageshadow="2"
     inkscape:pageopacity="0.0"
     inkscape:pagecheckerboard="0"
     inkscape:deskcolor="#d1d1d1"
     inkscape:document-units="mm"
     showguides="true"
     inkscape:zoom="1.4627806"
     inkscape:cx="62.210287"
     inkscape:cy="119.29335"
     inkscape:window-width="1920"
     inkscape:window-height="1017"
     inkscape:window-x="1912"
     inkscape:window-y="-8"
     inkscape:window-maximized="1"
     inkscape:current-layer="layer1"><sodipodi:guide
       position="33.823994,63.392286"
       orientation="1,0"
       id="guide19"
       inkscape:locked="false" /></sodipodi:namedview><defs
     id="defs1"><mask
       maskUnits="userSpaceOnUse"
       id="mask14"><circle
         style="fill:#ffffff;fill-opacity:1;stroke:#000000;stroke-width:0.341;stroke-dasharray:none;stroke-opacity:1"
         id="circle15"
         cx="8.1467628"
         cy="20.5793"
         r="14.108405"
         transform="rotate(-64.678862)" /></mask><mask
       maskUnits="userSpaceOnUse"
       id="mask15"><circle
         style="fill:#ffffff;fill-opacity:1;stroke:#000000;stroke-width:0.341;stroke-dasharray:none;stroke-opacity:1"
         id="circle16"
         cx="15.012247"
         cy="27.707361"
         r="14.108405"
         transform="rotate(-9.0420189)" /></mask></defs><g
     inkscape:groupmode="layer"
     id="layer2"
     inkscape:label="templates"
     style="display:inline" /><g
     inkscape:label="Ebene 1"
     inkscape:groupmode="layer"
     id="layer1"><circle
       style="fill:#373939;stroke-width:2.84528"
       id="path1"
       cx="33.866665"
       cy="33.866665"
       r="33.866665" /><g
       id="g9"
       style="fill:#d7eef4;fill-opacity:1;stroke:#000000;stroke-opacity:1"
       transform="matrix(-1.2877545,0,0,1.2877545,-85.722797,-23.703152)"><path
         style="fill:#d7eef4;fill-opacity:1;stroke:#000000;stroke-width:0.77654553;stroke-linecap:butt;stroke-linejoin:miter;stroke-opacity:1"
         d="m -112.7663,33.601583 -2.27146,9.266261 c 0,0 -0.0904,2.260962 0.54263,4.250608 0.63307,1.989648 0.99483,5.064556 0.99483,5.064556 0,0 0.72351,1.26614 1.98964,2.3514 1.26614,1.085262 7.32552,6.421133 7.68727,7.86815 0.36176,1.447014 0.81395,3.707976 0.81395,3.707976 0,0 5.116133,1.22289 7.506396,0.09044 1.79991,-0.852756 -2.532276,-12.02832 -2.532276,-12.02832 0,0 -1.98965,-2.532277 -3.34623,-3.074908 -1.35657,-0.542632 -1.1757,-0.452192 -1.44701,-0.633069 -0.27132,-0.180877 -5.51675,-5.878502 -5.51675,-5.878502 v -5.33587 c 0,0 -1.08526,-2.080086 -1.08526,-0.813949 0,1.26614 -0.0904,-2.351399 -0.0904,-2.351399 0,0 -1.04392,-2.008174 -1.1757,-0.452192 -0.13178,1.555982 -0.18088,-1.266139 -0.18088,-1.266139 0,0 -1.1926,-1.635229 -1.63295,-1.084791 z"
         id="path6"
         sodipodi:nodetypes="ccccsscscssccsczcsc" /><path
         style="fill:#d7eef4;fill-opacity:1;stroke:#000000;stroke-width:0.77654553;stroke-linecap:butt;stroke-linejoin:miter;stroke-opacity:1"
         d="m -110.69667,35.632765 -1.04008,9.360384 c 0,0 -0.27132,1.311357 1.40179,2.848811 1.67312,1.537454 4.34105,5.516748 4.34105,5.516748"
         id="path7" /><path
         style="fill:#d7eef4;fill-opacity:1;stroke:#000000;stroke-width:0.77654553;stroke-linecap:butt;stroke-linejoin:miter;stroke-opacity:1"
         d="m -109.43057,38.436356 -0.31654,5.742845"
         id="path8" /><path
         style="fill:#d7eef4;fill-opacity:1;stroke:#000000;stroke-width:0.776546;stroke-linecap:butt;stroke-linejoin:miter;stroke-opacity:1"
         d="m -111.73675,44.993149 c 0,0 1.17489,-1.131296 3.88804,0.08962"
         id="path9"
         sodipodi:nodetypes="cc" /></g><circle
       style="fill:#000000;fill-opacity:1;stroke:none;stroke-width:1;stroke-opacity:1;stroke-dasharray:none"
       id="path10"
       cx="34.33004"
       cy="22.157429"
       r="14.108405" /><path
       sodipodi:type="star"
       style="fill:#ffffff;fill-opacity:1;stroke:#000000;stroke-width:1.29;stroke-dasharray:none;stroke-opacity:1"
       id="path11"
       inkscape:flatsided="false"
       sodipodi:sides="5"
       sodipodi:cx="27.855057"
       sodipodi:cy="14.831912"
       sodipodi:r1="5.6947527"
       sodipodi:r2="2.8473763"
       sodipodi:arg1="1.000413"
       sodipodi:arg2="1.6287316"
       inkscape:rounded="0"
       inkscape:randomized="0"
       d="m 30.929965,19.625152 -3.239779,-1.950641 -3.443572,1.563005 0.854022,-3.683994 -2.550628,-2.792036 3.767595,-0.326194 1.867196,-3.2885781 1.474479,3.4823961 3.704619,0.759583 -2.856316,2.478432 z"
       inkscape:transform-center-x="-0.10189565"
       inkscape:transform-center-y="-0.44597947"
       transform="translate(1.5374543,2.2609622)" /><path
       sodipodi:type="star"
       style="fill:#ffffff;fill-opacity:1;stroke:#000000;stroke-width:1.29;stroke-dasharray:none;stroke-opacity:1"
       id="path12"
       inkscape:flatsided="false"
       sodipodi:sides="5"
       sodipodi:cx="27.855057"
       sodipodi:cy="14.831912"
       sodipodi:r1="5.6947527"
       sodipodi:r2="2.8473763"
       sodipodi:arg1="1.000413"
       sodipodi:arg2="1.6287316"
       inkscape:rounded="0"
       inkscape:randomized="0"
       d="m 30.929965,19.625152 -3.239779,-1.950641 -3.443572,1.563005 0.854022,-3.683994 -2.550628,-2.792036 3.767595,-0.326194 1.867196,-3.2885781 1.474479,3.4823961 3.704619,0.759583 -2.856316,2.478432 z"
       inkscape:transform-center-x="-0.18297713"
       inkscape:transform-center-y="0.36683077"
       transform="rotate(26.712286,8.3575478,45.415035)" /><path
       sodipodi:type="star"
       style="fill:#ffffff;fill-opacity:1;stroke:#000000;stroke-width:1.29;stroke-dasharray:none;stroke-opacity:1"
       id="path13"
       inkscape:flatsided="false"
       sodipodi:sides="5"
       sodipodi:cx="27.855057"
       sodipodi:cy="14.831912"
       sodipodi:r1="5.6947527"
       sodipodi:r2="2.8473763"
       sodipodi:arg1="1.000413"
       sodipodi:arg2="1.6287316"
       inkscape:rounded="0"
       inkscape:randomized="0"
       d="m 30.929965,19.625152 -3.239779,-1.950641 -3.443572,1.563005 0.854022,-3.683994 -2.550628,-2.792036 3.767595,-0.326194 1.867196,-3.2885781 1.474479,3.4823961 3.704619,0.759583 -2.856316,2.478432 z"
       inkscape:transform-center-x="-0.37672912"
       inkscape:transform-center-y="-0.17290222"
       transform="rotate(9.0420189,44.753655,119.38026)"
       mask="url(#mask15)" /><path
       sodipodi:type="star"
       style="fill:#ffffff;fill-opacity:1;stroke:#000000;stroke-width:1.29;stroke-dasharray:none;stroke-opacity:1"
       id="path14"
       inkscape:flatsided="false"
       sodipodi:sides="5"
       sodipodi:cx="27.855057"
       sodipodi:cy="14.831912"
       sodipodi:r1="5.6947527"
       sodipodi:r2="2.8473763"
       sodipodi:arg1="1.000413"
       sodipodi:arg2="1.6287316"
       inkscape:rounded="0"
       inkscape:randomized="0"
       d="m 30.929965,19.625152 -3.239779,-1.950641 -3.443572,1.563005 0.854022,-3.683994 -2.550628,-2.792036 3.767595,-0.326194 1.867196,-3.2885781 1.474479,3.4823961 3.704619,0.759583 -2.856316,2.478432 z"
       inkscape:transform-center-x="0.12280751"
       inkscape:transform-center-y="-0.42567821"
       transform="rotate(64.678862,11.845361,21.466468)"
       mask="url(#mask14)" /><g
       id="g19"
       style="fill:#ffffff;fill-opacity:1;stroke:#000000;stroke-opacity:1"
       transform="matrix(1.2877545,0,0,1.2877545,153.09408,-23.703152)"><path
         style="fill:#d7eef4;fill-opacity:1;stroke:#000000;stroke-width:0.776546;stroke-linecap:butt;stroke-linejoin:miter;stroke-opacity:1"
         d="m -112.7663,33.601583 -2.27146,9.266261 c 0,0 -0.0904,2.260962 0.54263,4.250608 0.63307,1.989648 0.99483,5.064556 0.99483,5.064556 0,0 0.72351,1.26614 1.98964,2.3514 1.26614,1.085262 7.32552,6.421133 7.68727,7.86815 0.36176,1.447014 0.81395,3.707976 0.81395,3.707976 0,0 5.116133,1.22289 7.506396,0.09044 1.79991,-0.852756 -2.532276,-12.02832 -2.532276,-12.02832 0,0 -1.98965,-2.532277 -3.34623,-3.074908 -1.35657,-0.542632 -1.1757,-0.452192 -1.44701,-0.633069 -0.27132,-0.180877 -5.51675,-5.878502 -5.51675,-5.878502 v -5.33587 c 0,0 -1.08526,-2.080086 -1.08526,-0.813949 0,1.26614 -0.0904,-2.351399 -0.0904,-2.351399 0,0 -1.04392,-2.008174 -1.1757,-0.452192 -0.13178,1.555982 -0.18088,-1.266139 -0.18088,-1.266139 0,0 -1.1926,-1.635229 -1.63295,-1.084791 z"
         id="path16"
         sodipodi:nodetypes="ccccsscscssccsczcsc" /><path
         style="fill:#d7eef4;fill-opacity:1;stroke:#000000;stroke-width:0.776546;stroke-linecap:butt;stroke-linejoin:miter;stroke-opacity:1"
         d="m -110.69667,35.632765 -1.04008,9.360384 c 0,0 -0.27132,1.311357 1.40179,2.848811 1.67312,1.537454 4.34105,5.516748 4.34105,5.516748"
         id="path17" /><path
         style="fill:#ffffff;fill-opacity:1;stroke:#000000;stroke-width:0.776546;stroke-linecap:butt;stroke-linejoin:miter;stroke-opacity:1"
         d="m -109.43057,38.436356 -0.31654,5.742845"
         id="path18" /><path
         style="fill:#ffffff;fill-opacity:1;stroke:#000000;stroke-width:0.776546;stroke-linecap:butt;stroke-linejoin:miter;stroke-opacity:1"
         d="m -111.73675,44.993149 c 0,0 1.17489,-1.131296 3.88804,0.08962"
         id="path19"
         sodipodi:nodetypes="cc" /></g></g></svg>
