<?xml version="1.0" encoding="UTF-8" standalone="no"?>
<!-- Created with Inkscape (http://www.inkscape.org/) -->

<svg
   xmlns:dc="http://purl.org/dc/elements/1.1/"
   xmlns:cc="http://creativecommons.org/ns#"
   xmlns:rdf="http://www.w3.org/1999/02/22-rdf-syntax-ns#"
   xmlns:svg="http://www.w3.org/2000/svg"
   xmlns="http://www.w3.org/2000/svg"
   xmlns:sodipodi="http://sodipodi.sourceforge.net/DTD/sodipodi-0.dtd"
   xmlns:inkscape="http://www.inkscape.org/namespaces/inkscape"
   width="210mm"
   height="297mm"
   viewBox="0 0 210 297"
   version="1.1"
   id="svg8"
   inkscape:version="0.92.4 (5da689c313, 2019-01-14)"
   sodipodi:docname="Icons.svg">
  <defs
     id="defs2" />
  <sodipodi:namedview
     id="base"
     pagecolor="#ffffff"
     bordercolor="#666666"
     borderopacity="1.0"
     inkscape:pageopacity="0.0"
     inkscape:pageshadow="2"
     inkscape:zoom="0.7"
     inkscape:cx="-51.832205"
     inkscape:cy="270.36373"
     inkscape:document-units="mm"
     inkscape:current-layer="layer1"
     showgrid="false"
     inkscape:snap-to-guides="false"
     inkscape:snap-grids="false"
     inkscape:snap-others="false"
     inkscape:object-nodes="false"
     inkscape:snap-nodes="false"
     inkscape:window-width="1920"
     inkscape:window-height="1017"
     inkscape:window-x="-8"
     inkscape:window-y="-8"
     inkscape:window-maximized="1" />
  <metadata
     id="metadata5">
    <rdf:RDF>
      <cc:Work
         rdf:about="">
        <dc:format>image/svg+xml</dc:format>
        <dc:type
           rdf:resource="http://purl.org/dc/dcmitype/StillImage" />
        <dc:title />
      </cc:Work>
    </rdf:RDF>
  </metadata>
  <g
     inkscape:label="Ebene 1"
     inkscape:groupmode="layer"
     id="layer1">
    <g
       id="g872"
       inkscape:export-xdpi="96"
       inkscape:export-ydpi="96">
      <path
         id="path815"
         transform="scale(0.26458333)"
         d="M 148.13477 251.76367 A 137.18312 114.65231 0 0 0 24.837891 316.48047 A 137.18312 114.65231 0 0 0 148.13477 381.06836 A 137.18312 114.65231 0 0 0 271.43359 316.35156 A 137.18312 114.65231 0 0 0 148.13477 251.76367 z M 148.13477 262.875 A 113.60571 94.947231 0 0 1 250.24219 316.36328 A 113.60571 94.947231 0 0 1 148.13477 369.95703 A 113.60571 94.947231 0 0 1 46.029297 316.46875 A 113.60571 94.947231 0 0 1 148.13477 262.875 z "
         style="fill:#000000;fill-opacity:1;stroke-width:0.53627378;stroke-miterlimit:4;stroke-dasharray:none;stroke-dashoffset:0" />
      <circle
         r="13.096207"
         cy="83.451645"
         cx="40.090427"
         id="path823"
         style="fill:#000000;fill-opacity:1;stroke-width:0.16500001;stroke-miterlimit:4;stroke-dasharray:none;stroke-dashoffset:0" />
      <circle
         r="3.8754082"
         cy="88.946793"
         cx="43.971207"
         id="path825"
         style="fill:#ffffff;fill-opacity:1;stroke-width:0.16500001;stroke-miterlimit:4;stroke-dasharray:none;stroke-dashoffset:0" />
    </g>
    <path
       inkscape:connector-curvature="0"
       id="path853"
       d="m 92.58405,124.47302 c -7.2306,0 -13.051731,13.24016 -13.051731,29.68632 0,0.18561 0.0016,0.3705 0.0032,0.55527 h 2.866908 c 0.518366,-15.35064 6.126033,-27.35992 13.012343,-27.35992 h 3.1e-4 c 1.35714,0 2.66472,0.46671 3.89335,1.33322 -1.96167,-2.67665 -4.26099,-4.21489 -6.72434,-4.21489 z"
       style="fill:#ffffff;fill-opacity:1;stroke-width:0.1301288;stroke-miterlimit:4;stroke-dasharray:none;stroke-dashoffset:0" />
    <g
       id="g867"
       inkscape:export-filename="U:\DEVELOPMENT\Jino\app\assets\assigned.png"
       inkscape:export-xdpi="96"
       inkscape:export-ydpi="96">
      <circle
         r="12.828938"
         cy="70.088158"
         cx="116.26226"
         id="path829"
         style="fill:#000000;fill-opacity:1;stroke-width:0.16500001;stroke-miterlimit:4;stroke-dasharray:none;stroke-dashoffset:0" />
      <path
         inkscape:connector-curvature="0"
         id="rect831"
         d="m 115.86683,77.037157 c -12.06749,0 -21.782651,16.498959 -21.782651,36.993343 0,0.23129 0.0027,0.46162 0.0052,0.69187 h 43.554961 c 0.002,-0.23025 0.005,-0.46058 0.005,-0.69187 0,-20.494384 -9.71465,-36.993343 -21.78213,-36.993343 z"
         style="fill:#000000;fill-opacity:1;stroke-width:0.18766354;stroke-miterlimit:4;stroke-dasharray:none;stroke-dashoffset:0" />
      <path
         sodipodi:nodetypes="cscccc"
         inkscape:connector-curvature="0"
         id="path848"
         d="m 106.84884,83.557413 c -4.69224,1.501209 -9.41257,13.634345 -10.061495,28.369557 -0.0073,0.1663 -0.01352,0.33201 -0.01981,0.4976 l 1.897551,0.0836 c 0.435676,-14.001701 7.188004,-29.499683 10.515064,-29.008823 0.0191,0.003 -0.6968,-0.411717 -2.33133,0.0581 z"
         style="fill:#ffffff;fill-opacity:1;stroke-width:0.10030684;stroke-miterlimit:4;stroke-dasharray:none;stroke-dashoffset:0" />
      <path
         inkscape:connector-curvature="0"
         id="circle855"
         d="m 110.7589,59.727694 a 9.4542013,10.844561 0 0 0 -6.26008,10.19266 9.4542013,10.844561 0 0 0 6.0849,10.129096 12.962572,12.962572 0 0 1 -4.84053,-10.088789 12.962572,12.962572 0 0 1 5.01571,-10.232967 z"
         style="fill:#ffffff;fill-opacity:1;stroke-width:0.1302302;stroke-miterlimit:4;stroke-dasharray:none;stroke-dashoffset:0" />
    </g>
    <g
       id="g918"
       inkscape:export-filename="U:\DEVELOPMENT\Jino\app\assets\medium.png"
       inkscape:export-xdpi="96"
       inkscape:export-ydpi="96">
      <rect
         y="230.18262"
         x="4.8108511"
         height="60.93745"
         width="60.93745"
         id="rect892"
         style="fill:#ffffff;fill-opacity:1;stroke-width:0.16500001;stroke-miterlimit:4;stroke-dasharray:none;stroke-dashoffset:0" />
      <g
         transform="matrix(0.78575095,0,0,0.78575095,5.4379653,114.25411)"
         id="g896">
        <path
           style="fill:#000000;fill-opacity:1;stroke-width:0.08178455;stroke-miterlimit:4;stroke-dasharray:none;stroke-dashoffset:0"
           d="m 37.952185,160.28315 -27.540326,27.54033 5.245776,5.24577 22.29455,-22.29456 22.294552,22.29456 5.245767,-5.24577 z"
           id="rect874"
           inkscape:connector-curvature="0" />
        <path
           id="path882"
           d="m 37.952185,178.64337 -27.540326,27.54033 5.245776,5.24577 22.29455,-22.29456 22.294552,22.29456 5.245767,-5.24577 z"
           style="fill:#000000;fill-opacity:1;stroke-width:0.08178455;stroke-miterlimit:4;stroke-dasharray:none;stroke-dashoffset:0"
           inkscape:connector-curvature="0" />
      </g>
    </g>
    <g
       id="g923"
       inkscape:export-filename="U:\DEVELOPMENT\Jino\app\assets\medium.png"
       inkscape:export-xdpi="96"
       inkscape:export-ydpi="96">
      <rect
         style="fill:#ffffff;fill-opacity:1;stroke-width:0.16500001;stroke-miterlimit:4;stroke-dasharray:none;stroke-dashoffset:0"
         id="rect898"
         width="60.93745"
         height="60.93745"
         x="78.894188"
         y="230.18262" />
      <g
         id="g906"
         transform="matrix(0.78575095,0,0,0.78575095,79.521303,114.25411)">
        <path
           inkscape:connector-curvature="0"
           style="fill:#000000;fill-opacity:1;stroke-width:0.08178455;stroke-miterlimit:4;stroke-dasharray:none;stroke-dashoffset:0"
           d="m 37.952185,178.64337 -27.540326,27.54033 5.245776,5.24577 22.29455,-22.29456 22.294552,22.29456 5.245767,-5.24577 z"
           id="path904" />
      </g>
    </g>
    <g
       id="g928"
       inkscape:export-filename="U:\DEVELOPMENT\Jino\app\assets\low.png"
       inkscape:export-xdpi="96"
       inkscape:export-ydpi="96">
      <rect
         y="230.18262"
         x="147.68585"
         height="60.93745"
         width="60.93745"
         id="rect900"
         style="fill:#ffffff;fill-opacity:1;stroke-width:0.16500001;stroke-miterlimit:4;stroke-dasharray:none;stroke-dashoffset:0" />
      <g
         transform="matrix(0.78575095,0,0,0.78575095,148.313,114.25411)"
         id="g912">
        <path
           id="path910"
           d="m 37.952185,211.42947 -27.540326,-27.54033 5.245776,-5.24577 22.29455,22.29456 22.294552,-22.29456 5.245767,5.24577 z"
           style="fill:#000000;fill-opacity:1;stroke-width:0.08178455;stroke-miterlimit:4;stroke-dasharray:none;stroke-dashoffset:0"
           inkscape:connector-curvature="0" />
      </g>
    </g>
    <path
       inkscape:connector-curvature="0"
       id="path873"
       d="m 113.40473,128.14139 a 9.4542013,10.844561 0 0 0 -6.26008,10.19265 9.4542013,10.844561 0 0 0 6.0849,10.1291 12.962572,12.962572 0 0 1 -4.84053,-10.08879 12.962572,12.962572 0 0 1 5.01571,-10.23296 z"
       style="fill:#ffffff;fill-opacity:1;stroke-width:0.1302302;stroke-miterlimit:4;stroke-dasharray:none;stroke-dashoffset:0" />
    <g
       id="g910"
       inkscape:export-filename="U:\DEVELOPMENT\Jino\app\assets\read.png"
       inkscape:export-xdpi="96"
       inkscape:export-ydpi="96">
      <g
         style="fill:#ffffff"
         transform="translate(6.4255953,-71.059524)"
         id="g899"
         inkscape:export-filename="U:\DEVELOPMENT\Jino\app\assets\medium.png"
         inkscape:export-xdpi="96"
         inkscape:export-ydpi="96">
        <rect
           y="230.18262"
           x="4.8108511"
           height="60.93745"
           width="60.93745"
           id="rect891"
           style="fill:#ffffff;fill-opacity:1;stroke-width:0.16500001;stroke-miterlimit:4;stroke-dasharray:none;stroke-dashoffset:0" />
      </g>
      <g
         transform="matrix(0.87643088,0,0,0.87643088,9.1098031,97.263561)"
         id="g849"
         inkscape:export-xdpi="96"
         inkscape:export-ydpi="96">
        <path
           inkscape:connector-curvature="0"
           id="path843"
           d="M 37.682305,89.290931 A 36.296367,30.33509 0 0 0 5.2279549,106.13021 H 10.850351 A 30.058177,25.121454 0 0 1 37.682305,92.230804 30.058177,25.121454 0 0 1 64.547847,106.13021 h 5.593459 A 36.296367,30.33509 0 0 0 37.682305,89.290931 Z"
           style="fill:#000000;fill-opacity:1;stroke-width:0.1418891;stroke-miterlimit:4;stroke-dasharray:none;stroke-dashoffset:0" />
        <circle
           r="13.096207"
           cy="106.13022"
           cx="38.578522"
           id="circle845"
           style="fill:#000000;fill-opacity:1;stroke-width:0.16500001;stroke-miterlimit:4;stroke-dasharray:none;stroke-dashoffset:0" />
      </g>
    </g>
    <g
       id="g919"
       inkscape:export-filename="U:\DEVELOPMENT\Jino\app\assets\assigned.png"
       inkscape:export-xdpi="96"
       inkscape:export-ydpi="96">
      <g
         id="g862">
        <g
           style="fill:#ffffff"
           transform="translate(75.973215,-70.681548)"
           id="g903"
           inkscape:export-filename="U:\DEVELOPMENT\Jino\app\assets\medium.png"
           inkscape:export-xdpi="96"
           inkscape:export-ydpi="96">
          <rect
             y="230.18262"
             x="4.8108511"
             height="60.93745"
             width="60.93745"
             id="rect901"
             style="fill:#ffffff;fill-opacity:1;stroke-width:0.16500001;stroke-miterlimit:4;stroke-dasharray:none;stroke-dashoffset:0" />
        </g>
        <g
           id="g889"
           transform="matrix(0.85217847,0,0,0.85217847,-25.587228,29.664533)">
          <path
             transform="scale(0.26458333)"
             id="path881"
             d="m 648.4668,692.02344 a 48.487323,48.487323 0 0 1 -41.05078,22.79297 48.487323,48.487323 0 0 1 -40.70508,-22.1543 c -24.6172,24.11768 -41.11719,69.25178 -41.11719,121.17578 0,0.87417 0.012,1.745 0.0195,2.61523 h 164.61719 c 0.008,-0.87023 0.0176,-1.74106 0.0176,-2.61523 0,-52.38922 -16.79798,-97.86189 -41.78125,-121.81445 z"
             style="fill:#000000;fill-opacity:1;stroke-width:0.70927954;stroke-miterlimit:4;stroke-dasharray:none;stroke-dashoffset:0"
             inkscape:connector-curvature="0" />
          <circle
             style="fill:#000000;fill-opacity:1;stroke-width:0.16500001;stroke-miterlimit:4;stroke-dasharray:none;stroke-dashoffset:0"
             id="circle867"
             cx="160.71227"
             cy="172.59534"
             r="12.828938" />
        </g>
      </g>
    </g>
  </g>
</svg>
